<svg width="340" height="380" viewBox="0 0 340 380" fill="none" xmlns="http://www.w3.org/2000/svg">
<g filter="url(#filter0_dig_18_23)">
<path d="M169.744 22.5241C172.66 22.5241 175.616 23.2592 178.249 24.7697L308.454 99.4692C313.67 102.49 316.959 108.089 316.959 114.101V263.54C316.959 269.582 313.71 275.141 308.454 278.172L178.249 352.872C175.616 354.382 172.66 355.158 169.744 355.158C166.818 355.158 163.862 354.382 161.269 352.872L31.0742 278.172C25.8078 275.151 22.5593 269.582 22.5593 263.54V114.101C22.5593 108.089 25.8078 102.49 31.0742 99.4692L161.269 24.7697C163.903 23.2592 166.818 22.5241 169.744 22.5241ZM169.744 9C164.357 9 159.09 10.3897 154.449 13.0884L24.2844 87.7477C14.8414 93.1855 9.02018 103.205 9 114.061V263.5C9 274.366 14.8716 284.466 24.3248 289.853L154.49 364.553C163.963 370.021 175.656 370.001 185.119 364.513L315.274 289.813C324.737 284.375 330.568 274.285 330.568 263.5V114.101C330.568 103.356 324.737 93.256 315.314 87.788L185.079 13.0482C180.408 10.3897 175.121 9 169.744 9Z" fill="url(#paint0_linear_18_23)"/>
<path d="M169.744 10C174.949 10 180.065 11.345 184.584 13.917L314.812 88.6523V88.6533C323.93 93.9442 329.568 103.716 329.568 114.101V263.5C329.568 273.925 323.93 283.685 314.776 288.945L184.621 363.646L184.617 363.647C175.463 368.956 164.152 368.975 154.989 363.687L154.987 363.686L24.8223 288.986L24.8203 288.984L24.3936 288.737C15.5022 283.47 10 273.842 10 263.5V114.062C10.0195 103.566 15.647 93.875 24.7812 88.6143L24.7822 88.6152L154.947 13.9561L154.952 13.9531C159.437 11.3452 164.529 10 169.744 10ZM169.744 21.5244C166.65 21.5244 163.561 22.3019 160.771 23.9023L30.5762 98.6016C25.0016 101.8 21.5597 107.728 21.5596 114.101V263.54C21.5596 269.944 25.0025 275.842 30.5762 279.039L160.771 353.738C163.518 355.337 166.646 356.157 169.744 356.157C172.835 356.157 175.962 355.336 178.746 353.739L308.951 279.039L308.953 279.038C314.515 275.831 317.959 269.945 317.959 263.54V114.101C317.959 107.725 314.473 101.799 308.955 98.6035L308.951 98.6016L178.746 23.9023C175.955 22.301 172.826 21.5245 169.744 21.5244Z" stroke="black" stroke-opacity="0.55" stroke-width="2"/>
<path d="M285.139 167.835L247.73 180.382L235.563 214.177C233.787 219.101 229.832 222.928 224.828 224.559L215.991 227.419L196.913 280.498C194.512 287.225 188.105 291.706 180.922 291.696H180.347L173.689 310.084H165.92L159.383 291.696H158.727C151.574 291.696 145.117 287.195 142.726 280.498L123.739 227.459L114.821 224.559C109.817 222.928 105.862 219.101 104.086 214.177L92 180.382L54.5103 167.835H123.124L119.129 156.798L104.046 114.755L72.7608 104.373H128.955C136.148 104.373 142.565 108.865 144.956 115.571L163.701 167.835L164.356 169.557V196.272H144.169L169.784 267.83L195.44 196.323H175.293V169.557L175.868 167.875L194.613 115.611C197.024 108.885 203.42 104.393 210.603 104.373H266.848L235.563 114.796V114.876L220.51 156.848L216.566 167.875H285.139V167.835Z" fill="url(#paint1_linear_18_23)"/>
<path d="M128.955 105.373C135.731 105.373 141.767 109.604 144.014 115.907V115.908L162.759 168.172L162.762 168.182L162.766 168.191L163.357 169.74V195.273H142.749L143.227 196.61L168.842 268.167L169.783 270.794L170.725 268.168L196.381 196.66L196.861 195.323H176.292V169.723L176.809 168.212L195.554 115.949V115.948C197.751 109.819 203.468 105.658 209.974 105.387L210.606 105.373H260.681L235.247 113.847L234.563 114.074V114.701L219.569 156.511L215.625 167.538L215.146 168.875H278.893L247.412 179.434L246.953 179.588L246.789 180.043L234.622 213.838C232.951 218.47 229.231 222.071 224.52 223.608L215.683 226.468L215.215 226.618L215.049 227.081L195.972 280.16L195.971 280.162C193.714 286.487 187.687 290.706 180.923 290.697H179.646L179.407 291.356L172.987 309.084H166.626L160.325 291.362L160.088 290.697H158.727C151.991 290.697 145.914 286.455 143.667 280.162V280.161L124.681 227.122L124.515 226.66L124.048 226.508L115.13 223.609C110.565 222.12 106.931 218.693 105.19 214.269L105.027 213.838L92.9419 180.045L92.7778 179.588L92.3179 179.434L60.6489 168.834H124.549L124.064 167.494L120.069 156.457L104.987 114.418L104.823 113.959L104.361 113.807L78.9487 105.373H128.955Z" stroke="black" stroke-opacity="0.55" stroke-width="2"/>
</g>
<defs>
<filter id="filter0_dig_18_23" x="0" y="0" width="339.568" height="379.641" filterUnits="userSpaceOnUse" color-interpolation-filters="sRGB">
<feFlood flood-opacity="0" result="BackgroundImageFix"/>
<feColorMatrix in="SourceAlpha" type="matrix" values="0 0 0 0 0 0 0 0 0 0 0 0 0 0 0 0 0 0 127 0" result="hardAlpha"/>
<feOffset dy="4"/>
<feGaussianBlur stdDeviation="3.5"/>
<feComposite in2="hardAlpha" operator="out"/>
<feColorMatrix type="matrix" values="0 0 0 0 1 0 0 0 0 0.316653 0 0 0 0 0.179984 0 0 0 1 0"/>
<feBlend mode="normal" in2="BackgroundImageFix" result="effect1_dropShadow_18_23"/>
<feBlend mode="normal" in="SourceGraphic" in2="effect1_dropShadow_18_23" result="shape"/>
<feColorMatrix in="SourceAlpha" type="matrix" values="0 0 0 0 0 0 0 0 0 0 0 0 0 0 0 0 0 0 127 0" result="hardAlpha"/>
<feOffset dy="9"/>
<feComposite in2="hardAlpha" operator="arithmetic" k2="-1" k3="1"/>
<feColorMatrix type="matrix" values="0 0 0 0 0 0 0 0 0 0 0 0 0 0 0 0 0 0 0.45 0"/>
<feBlend mode="normal" in2="shape" result="effect2_innerShadow_18_23"/>
<feTurbulence type="fractalNoise" baseFrequency="0.019999999552965164 0.019999999552965164" numOctaves="3" seed="7098" />
<feDisplacementMap in="effect2_innerShadow_18_23" scale="18" xChannelSelector="R" yChannelSelector="G" result="displacedImage" width="100%" height="100%" />
<feMerge result="effect3_texture_18_23">
<feMergeNode in="displacedImage"/>
</feMerge>
</filter>
<linearGradient id="paint0_linear_18_23" x1="169.784" y1="9" x2="169.784" y2="368.641" gradientUnits="userSpaceOnUse">
<stop stop-color="#B8612C"/>
<stop offset="1" stop-color="#FFA585"/>
</linearGradient>
<linearGradient id="paint1_linear_18_23" x1="169.825" y1="104.373" x2="169.825" y2="310.084" gradientUnits="userSpaceOnUse">
<stop stop-color="#B8612C"/>
<stop offset="1" stop-color="#FFA585"/>
</linearGradient>
</defs>
</svg>
